STARTFONT 2.1
FONT -Bitwi.se-IBMPCP-Medium-R-Normal--12-120-75-75-C-60-ascii-0
SIZE 12 75 75
FONTBOUNDINGBOX
STARTPROPERTIES 24
FONT_ASCENT 9
FONT_DESCENT 3
DEFAULT_CHAR 0
FONTNAME_REGISTRY ""
FOUNDRY "Bitwi.se"
FAMILY_NAME "IBMPCP"
WEIGHT_NAME "Medium"
SLANT "R"
SETWIDTH_NAME "Normal"
PIXEL_SIZE 12
POINT_SIZE 120
RESOLUTION_X 75
RESOLUTION_Y 75
SPACING "C"
CHARSET_REGISTRY "ISO8859"
CHARSET_ENCODING 1
COPYRIGHT "Nikolai Weibull <nikolai@bitwi.se>"
ADD_STYLE_NAME ""
WEIGHT 10
RESOLUTION 103
AVERAGE_WIDTH 70
QUAD_WIDTH 7
X_HEIGHT 0
ENDPROPERTIES
CHARS 256
STARTCHAR C000
ENCODING 0
SWIDTH 443 0
DWIDTH 7 0
BBX 0 0 0 0
BITMAP
ENDCHAR
STARTCHAR C001
ENCODING 1
SWIDTH 443 0
DWIDTH 7 0
BBX 7 7 0 0
BITMAP
7C
82
AA
82
BA
82
7C
ENDCHAR
STARTCHAR C002
ENCODING 2
SWIDTH 443 0
DWIDTH 7 0
BBX 7 7 0 0
BITMAP
7C
FE
D6
FE
D6
EE
7C
ENDCHAR
STARTCHAR C003
ENCODING 3
SWIDTH 443 0
DWIDTH 7 0
BBX 7 6 0 0
BITMAP
6c
fe
fe
7c
38
10
ENDCHAR
STARTCHAR C004
ENCODING 4
SWIDTH 443 0
DWIDTH 7 0
BBX 5 6 1 0
BITMAP
20
70
F8
F8
70
20
ENDCHAR
STARTCHAR C005
ENCODING 5
SWIDTH 443 0
DWIDTH 7 0
BBX 7 7 0 0
BITMAP
38
38
D6
FE
D6
10
38
ENDCHAR
STARTCHAR C006
ENCODING 6
SWIDTH 443 0
DWIDTH 7 0
BBX 7 8 0 0
BITMAP
10
38
7C
FE
FE
D6
10
38
ENDCHAR
STARTCHAR C007
ENCODING 7
SWIDTH 443 0
DWIDTH 7 0
BBX 5 5 1 1
BITMAP
20
20
F8
20
20
ENDCHAR
STARTCHAR C010
ENCODING 8
SWIDTH 443 0
DWIDTH 7 0
BBX 7 9 0 -2
BITMAP
FE
EE
C6
82
82
C6
EE
FE
FE
ENDCHAR
STARTCHAR C011
ENCODING 9
SWIDTH 443 0
DWIDTH 7 0
BBX 5 5 1 0
BITMAP
70
88
88
88
70
ENDCHAR
STARTCHAR C012
ENCODING 10
SWIDTH 443 0
DWIDTH 7 0
BBX 7 9 0 -2
BITMAP
fe
ee
d6
ba
ba
d6
ee
fe
fe
ENDCHAR
STARTCHAR C013
ENCODING 11
SWIDTH 443 0
DWIDTH 7 0
BBX 7 7 0 0
BITMAP
1e
06
0a
72
90
90
60
ENDCHAR
STARTCHAR C014
ENCODING 12
SWIDTH 443 0
DWIDTH 7 0
BBX 5 7 1 0
BITMAP
70
88
88
70
20
F8
20
ENDCHAR
STARTCHAR C015
ENCODING 13
SWIDTH 443 0
DWIDTH 7 0
BBX 6 7 1 0
BITMAP
30
28
24
24
20
40
C0
ENDCHAR
STARTCHAR C016
ENCODING 14
SWIDTH 443 0
DWIDTH 7 0
BBX 7 7 0 0
BITMAP
1E
22
3E
22
24
4C
C0
ENDCHAR
STARTCHAR C017
ENCODING 15
SWIDTH 443 0
DWIDTH 7 0
BBX 5 5 1 1
BITMAP
A8
70
D8
70
A8
ENDCHAR
STARTCHAR C020
ENCODING 16
SWIDTH 443 0
DWIDTH 7 0
BBX 4 7 1 0
BITMAP
80
C0
E0
F0
E0
C0
80
ENDCHAR
STARTCHAR C021
ENCODING 17
SWIDTH 443 0
DWIDTH 7 0
BBX 4 7 2 0
BITMAP
10
30
70
F0
70
30
10
ENDCHAR
STARTCHAR C022
ENCODING 18
SWIDTH 443 0
DWIDTH 7 0
BBX 3 7 2 0
BITMAP
40
E0
40
40
40
E0
40
ENDCHAR
STARTCHAR C023
ENCODING 19
SWIDTH 443 0
DWIDTH 7 0
BBX 3 8 2 -1
BITMAP
A0
A0
A0
A0
A0
A0
00
A0
ENDCHAR
STARTCHAR C024
ENCODING 20
SWIDTH 443 0
DWIDTH 7 0
BBX 6 7 0 0
BITMAP
7C
F4
F4
74
14
14
14
ENDCHAR
STARTCHAR C025
ENCODING 21
SWIDTH 443 0
DWIDTH 7 0
BBX 4 8 2 -1
BITMAP
60
90
C0
A0
50
30
90
60
ENDCHAR
STARTCHAR C026
ENCODING 22
SWIDTH 443 0
DWIDTH 7 0
BBX 7 3 0 0
BITMAP
FE
FE
FE
ENDCHAR
STARTCHAR C027
ENCODING 23
SWIDTH 443 0
DWIDTH 7 0
BBX 3 7 2 0
BITMAP
40
E0
40
40
E0
40
E0
ENDCHAR
STARTCHAR C030
ENCODING 24
SWIDTH 443 0
DWIDTH 7 0
BBX 3 7 2 0
BITMAP
40
E0
40
40
40
40
40
ENDCHAR
STARTCHAR C031
ENCODING 25
SWIDTH 443 0
DWIDTH 7 0
BBX 3 7 2 0
BITMAP
40
40
40
40
40
E0
40
ENDCHAR
STARTCHAR C032
ENCODING 26
SWIDTH 443 0
DWIDTH 7 0
BBX 7 3 0 2
BITMAP
04
FE
04
ENDCHAR
STARTCHAR C033
ENCODING 27
SWIDTH 443 0
DWIDTH 7 0
BBX 7 3 0 2
BITMAP
40
FE
40
ENDCHAR
STARTCHAR C034
ENCODING 28
SWIDTH 443 0
DWIDTH 7 0
BBX 5 2 1 2
BITMAP
80
F8
ENDCHAR
STARTCHAR C035
ENCODING 29
SWIDTH 443 0
DWIDTH 7 0
BBX 7 3 0 2
BITMAP
44
FE
44
ENDCHAR
STARTCHAR C036
ENCODING 30
SWIDTH 443 0
DWIDTH 7 0
BBX 7 4 0 0
BITMAP
10
38
7C
FE
ENDCHAR
STARTCHAR C037
ENCODING 31
SWIDTH 443 0
DWIDTH 7 0
BBX 7 4 0 0
BITMAP
FE
7C
38
10
ENDCHAR
STARTCHAR space
ENCODING 32
SWIDTH 443 0
DWIDTH 7 0
BBX 0 0 0 0
BITMAP
ENDCHAR
STARTCHAR exclam
ENCODING 33
SWIDTH 443 0
DWIDTH 7 0
BBX 1 7 3 0
BITMAP
80
80
80
80
80
00
80
ENDCHAR
STARTCHAR quotedbl
ENCODING 34
SWIDTH 443 0
DWIDTH 7 0
BBX 3 2 2 5
BITMAP
A0
A0
ENDCHAR
STARTCHAR numbersign
ENCODING 35
SWIDTH 443 0
DWIDTH 7 0
BBX 7 8 0 -1
BITMAP
14
14
7E
28
28
FC
50
50
ENDCHAR
STARTCHAR dollar
ENCODING 36
SWIDTH 443 0
DWIDTH 7 0
BBX 5 11 1 -2
BITMAP
20
20
70
88
80
70
08
88
70
20
20
ENDCHAR
STARTCHAR percent
ENCODING 37
SWIDTH 443 0
DWIDTH 7 0
BBX 7 7 0 0
BITMAP
02
44
A8
50
34
6A
94
ENDCHAR
STARTCHAR ampersand
ENCODING 38
SWIDTH 443 0
DWIDTH 7 0
BBX 6 7 0 0
BITMAP
70
80
40
28
90
94
68
ENDCHAR
STARTCHAR apostrophe
ENCODING 39
SWIDTH 443 0
DWIDTH 7 0
BBX 1 2 3 5
BITMAP
80
80
ENDCHAR
STARTCHAR parenleft
ENCODING 40
SWIDTH 443 0
DWIDTH 7 0
BBX 2 8 2 -1
BITMAP
40
40
80
80
80
80
40
40
ENDCHAR
STARTCHAR parenright
ENCODING 41
SWIDTH 443 0
DWIDTH 7 0
BBX 2 8 3 -1
BITMAP
80
80
40
40
40
40
80
80
ENDCHAR
STARTCHAR asterisk
ENCODING 42
SWIDTH 443 0
DWIDTH 7 0
BBX 6 5 0 2
BITMAP
48
30
FC
30
48
ENDCHAR
STARTCHAR plus
ENCODING 43
SWIDTH 443 0
DWIDTH 7 0
BBX 5 5 1 1
BITMAP
20
20
F8
20
20
ENDCHAR
STARTCHAR comma
ENCODING 44
SWIDTH 443 0
DWIDTH 7 0
BBX 2 2 2 -1
BITMAP
40
80
ENDCHAR
STARTCHAR minus
ENCODING 45
SWIDTH 443 0
DWIDTH 7 0
BBX 3 1 2 3
BITMAP
E0
ENDCHAR
STARTCHAR period
ENCODING 46
SWIDTH 443 0
DWIDTH 7 0
BBX 1 1 3 0
BITMAP
80
ENDCHAR
STARTCHAR slash
ENCODING 47
SWIDTH 443 0
DWIDTH 7 0
BBX 5 7 1 0
BITMAP
08
10
10
20
40
40
80
ENDCHAR
STARTCHAR 0
ENCODING 48
SWIDTH 443 0
DWIDTH 7 0
BBX 5 7 1 0
BITMAP
70
88
98
a8
c8
88
70
ENDCHAR
STARTCHAR 1
ENCODING 49
SWIDTH 443 0
DWIDTH 7 0
BBX 3 7 2 0
BITMAP
60
A0
20
20
20
20
20
ENDCHAR
STARTCHAR 2
ENCODING 50
SWIDTH 443 0
DWIDTH 7 0
BBX 5 7 1 0
BITMAP
70
88
08
30
40
80
F8
ENDCHAR
STARTCHAR 3
ENCODING 51
SWIDTH 443 0
DWIDTH 7 0
BBX 5 7 1 0
BITMAP
70
88
08
30
08
88
70
ENDCHAR
STARTCHAR 4
ENCODING 52
SWIDTH 443 0
DWIDTH 7 0
BBX 4 7 1 0
BITMAP
90
90
90
90
f0
10
10
ENDCHAR
STARTCHAR 5
ENCODING 53
SWIDTH 443 0
DWIDTH 7 0
BBX 5 7 1 0
BITMAP
F8
80
F0
08
08
88
70
ENDCHAR
STARTCHAR 6
ENCODING 54
SWIDTH 443 0
DWIDTH 7 0
BBX 5 7 1 0
BITMAP
38
40
80
F0
88
88
70
ENDCHAR
STARTCHAR 7
ENCODING 55
SWIDTH 443 0
DWIDTH 7 0
BBX 5 7 1 0
BITMAP
F8
08
10
10
20
40
40
ENDCHAR
STARTCHAR 8
ENCODING 56
SWIDTH 443 0
DWIDTH 7 0
BBX 5 7 1 0
BITMAP
70
88
88
70
88
88
70
ENDCHAR
STARTCHAR 9
ENCODING 57
SWIDTH 443 0
DWIDTH 7 0
BBX 5 7 1 0
BITMAP
70
88
88
78
08
10
60
ENDCHAR
STARTCHAR colon
ENCODING 58
SWIDTH 443 0
DWIDTH 7 0
BBX 1 5 3 0
BITMAP
80
80
00
80
80
ENDCHAR
STARTCHAR semicolon
ENCODING 59
SWIDTH 443 0
DWIDTH 7 0
BBX 2 6 2 -1
BITMAP
40
40
00
40
40
80
ENDCHAR
STARTCHAR less
ENCODING 60
SWIDTH 443 0
DWIDTH 7 0
BBX 4 7 1 0
BITMAP
10
20
40
80
40
20
10
ENDCHAR
STARTCHAR equal
ENCODING 61
SWIDTH 443 0
DWIDTH 7 0
BBX 5 4 1 1
BITMAP
F8
00
00
F8
ENDCHAR
STARTCHAR greater
ENCODING 62
SWIDTH 443 0
DWIDTH 7 0
BBX 4 7 1 0
BITMAP
80
40
20
10
20
40
80
ENDCHAR
STARTCHAR question
ENCODING 63
SWIDTH 443 0
DWIDTH 7 0
BBX 5 7 1 0
BITMAP
70
88
08
10
20
00
20
ENDCHAR
STARTCHAR at
ENCODING 64
SWIDTH 443 0
DWIDTH 7 0
BBX 7 7 0 0
BITMAP
38
44
92
AA
9C
40
38
ENDCHAR
STARTCHAR A
ENCODING 65
SWIDTH 443 0
DWIDTH 7 0
BBX 5 7 1 0
BITMAP
70
88
88
88
f8
88
88
ENDCHAR
STARTCHAR B
ENCODING 66
SWIDTH 443 0
DWIDTH 7 0
BBX 5 7 1 0
BITMAP
F0
88
88
F0
88
88
F0
ENDCHAR
STARTCHAR C
ENCODING 67
SWIDTH 443 0
DWIDTH 7 0
BBX 6 7 0 0
BITMAP
38
44
80
80
80
44
38
ENDCHAR
STARTCHAR D
ENCODING 68
SWIDTH 443 0
DWIDTH 7 0
BBX 5 7 1 0
BITMAP
E0
90
88
88
88
90
E0
ENDCHAR
STARTCHAR E
ENCODING 69
SWIDTH 443 0
DWIDTH 7 0
BBX 5 7 1 0
BITMAP
F8
80
80
F0
80
80
F8
ENDCHAR
STARTCHAR F
ENCODING 70
SWIDTH 443 0
DWIDTH 7 0
BBX 5 7 1 0
BITMAP
F8
80
80
F0
80
80
80
ENDCHAR
STARTCHAR G
ENCODING 71
SWIDTH 443 0
DWIDTH 7 0
BBX 6 7 0 0
BITMAP
38
44
80
80
8C
44
38
ENDCHAR
STARTCHAR H
ENCODING 72
SWIDTH 443 0
DWIDTH 7 0
BBX 5 7 1 0
BITMAP
88
88
88
F8
88
88
88
ENDCHAR
STARTCHAR I
ENCODING 73
SWIDTH 443 0
DWIDTH 7 0
BBX 5 7 1 0
BITMAP
F8
20
20
20
20
20
F8
ENDCHAR
STARTCHAR J
ENCODING 74
SWIDTH 443 0
DWIDTH 7 0
BBX 5 7 0 0
BITMAP
08
08
08
08
08
88
70
ENDCHAR
STARTCHAR K
ENCODING 75
SWIDTH 443 0
DWIDTH 7 0
BBX 5 7 1 0
BITMAP
88
90
A0
C0
A0
90
88
ENDCHAR
STARTCHAR L
ENCODING 76
SWIDTH 443 0
DWIDTH 7 0
BBX 5 7 1 0
BITMAP
80
80
80
80
80
80
F8
ENDCHAR
STARTCHAR M
ENCODING 77
SWIDTH 443 0
DWIDTH 7 0
BBX 6 7 0 0
BITMAP
84
cc
b4
b4
84
84
84
ENDCHAR
STARTCHAR N
ENCODING 78
SWIDTH 443 0
DWIDTH 7 0
BBX 5 7 1 0
BITMAP
88
c8
c8
a8
98
98
88
ENDCHAR
STARTCHAR O
ENCODING 79
SWIDTH 443 0
DWIDTH 7 0
BBX 6 7 0 0
BITMAP
30
48
84
84
84
48
30
ENDCHAR
STARTCHAR P
ENCODING 80
SWIDTH 443 0
DWIDTH 7 0
BBX 5 7 1 0
BITMAP
F0
88
88
F0
80
80
80
ENDCHAR
STARTCHAR Q
ENCODING 81
SWIDTH 443 0
DWIDTH 7 0
BBX 6 9 0 -2
BITMAP
30
48
84
84
84
48
30
10
0C
ENDCHAR
STARTCHAR R
ENCODING 82
SWIDTH 443 0
DWIDTH 7 0
BBX 5 7 1 0
BITMAP
F0
88
88
F0
90
88
88
ENDCHAR
STARTCHAR S
ENCODING 83
SWIDTH 443 0
DWIDTH 7 0
BBX 5 7 1 0
BITMAP
70
88
80
70
08
88
70
ENDCHAR
STARTCHAR T
ENCODING 84
SWIDTH 443 0
DWIDTH 7 0
BBX 5 7 1 0
BITMAP
F8
20
20
20
20
20
20
ENDCHAR
STARTCHAR U
ENCODING 85
SWIDTH 443 0
DWIDTH 7 0
BBX 5 7 1 0
BITMAP
88
88
88
88
88
88
70
ENDCHAR
STARTCHAR V
ENCODING 86
SWIDTH 443 0
DWIDTH 7 0
BBX 5 7 1 0
BITMAP
88
88
88
50
50
20
20
ENDCHAR
STARTCHAR W
ENCODING 87
SWIDTH 443 0
DWIDTH 7 0
BBX 7 7 0 0
BITMAP
82
82
92
92
AA
44
44
ENDCHAR
STARTCHAR X
ENCODING 88
SWIDTH 443 0
DWIDTH 7 0
BBX 6 7 0 0
BITMAP
84
48
30
30
48
84
84
ENDCHAR
STARTCHAR Y
ENCODING 89
SWIDTH 443 0
DWIDTH 7 0
BBX 5 7 1 0
BITMAP
88
88
50
50
20
20
20
ENDCHAR
STARTCHAR Z
ENCODING 90
SWIDTH 443 0
DWIDTH 7 0
BBX 5 7 1 0
BITMAP
F8
08
10
20
40
80
F8
ENDCHAR
STARTCHAR bracketleft
ENCODING 91
SWIDTH 443 0
DWIDTH 7 0
BBX 3 8 2 -1
BITMAP
e0
80
80
80
80
80
80
e0
ENDCHAR
STARTCHAR backslash
ENCODING 92
SWIDTH 443 0
DWIDTH 7 0
BBX 5 7 1 0
BITMAP
80
40
40
20
10
10
08
ENDCHAR
STARTCHAR bracketright
ENCODING 93
SWIDTH 443 0
DWIDTH 7 0
BBX 3 8 2 -1
BITMAP
e0
20
20
20
20
20
20
e0
ENDCHAR
STARTCHAR asciicircum
ENCODING 94
SWIDTH 443 0
DWIDTH 7 0
BBX 3 2 2 7
BITMAP
40
A0
ENDCHAR
STARTCHAR underscore
ENCODING 95
SWIDTH 443 0
DWIDTH 7 0
BBX 7 1 0 -1
BITMAP
FE
ENDCHAR
STARTCHAR grave
ENCODING 96
SWIDTH 443 0
DWIDTH 7 0
BBX 2 2 2 7
BITMAP
80
40
ENDCHAR
STARTCHAR a
ENCODING 97
SWIDTH 443 0
DWIDTH 7 0
BBX 5 5 1 0
BITMAP
70
08
78
88
78
ENDCHAR
STARTCHAR b
ENCODING 98
SWIDTH 443 0
DWIDTH 7 0
BBX 5 7 1 0
BITMAP
80
80
F0
88
88
88
70
ENDCHAR
STARTCHAR c
ENCODING 99
SWIDTH 443 0
DWIDTH 7 0
BBX 5 5 1 0
BITMAP
70
88
80
88
70
ENDCHAR
STARTCHAR d
ENCODING 100
SWIDTH 443 0
DWIDTH 7 0
BBX 5 7 1 0
BITMAP
08
08
78
88
88
88
78
ENDCHAR
STARTCHAR e
ENCODING 101
SWIDTH 443 0
DWIDTH 7 0
BBX 5 5 1 0
BITMAP
70
88
F8
80
78
ENDCHAR
STARTCHAR f
ENCODING 102
SWIDTH 443 0
DWIDTH 7 0
BBX 5 8 0 0
BITMAP
18
20
20
F8
20
20
20
20
ENDCHAR
STARTCHAR g
ENCODING 103
SWIDTH 443 0
DWIDTH 7 0
BBX 5 7 1 -2
BITMAP
78
88
88
88
78
08
F0
ENDCHAR
STARTCHAR h
ENCODING 104
SWIDTH 443 0
DWIDTH 7 0
BBX 5 7 1 0
BITMAP
80
80
F0
88
88
88
88
ENDCHAR
STARTCHAR i
ENCODING 105
SWIDTH 443 0
DWIDTH 7 0
BBX 5 7 1 0
BITMAP
20
00
E0
20
20
20
F8
ENDCHAR
STARTCHAR j
ENCODING 106
SWIDTH 443 0
DWIDTH 7 0
BBX 4 9 1 -2
BITMAP
10
00
70
10
10
10
10
10
E0
ENDCHAR
STARTCHAR k
ENCODING 107
SWIDTH 443 0
DWIDTH 7 0
BBX 4 7 1 0
BITMAP
80
80
90
A0
C0
A0
90
ENDCHAR
STARTCHAR l
ENCODING 108
SWIDTH 443 0
DWIDTH 7 0
BBX 5 8 1 0
BITMAP
E0
20
20
20
20
20
20
F8
ENDCHAR
STARTCHAR m
ENCODING 109
SWIDTH 443 0
DWIDTH 7 0
BBX 7 5 0 0
BITMAP
EC
92
92
92
92
ENDCHAR
STARTCHAR n
ENCODING 110
SWIDTH 443 0
DWIDTH 7 0
BBX 4 5 1 0
BITMAP
E0
90
90
90
90
ENDCHAR
STARTCHAR o
ENCODING 111
SWIDTH 443 0
DWIDTH 7 0
BBX 5 5 1 0
BITMAP
70
88
88
88
70
ENDCHAR
STARTCHAR p
ENCODING 112
SWIDTH 443 0
DWIDTH 7 0
BBX 5 7 1 -2
BITMAP
F0
88
88
88
F0
80
80
ENDCHAR
STARTCHAR q
ENCODING 113
SWIDTH 443 0
DWIDTH 7 0
BBX 5 7 1 -2
BITMAP
78
88
88
88
78
08
08
ENDCHAR
STARTCHAR r
ENCODING 114
SWIDTH 443 0
DWIDTH 7 0
BBX 4 5 2 0
BITMAP
B0
C0
80
80
80
ENDCHAR
STARTCHAR s
ENCODING 115
SWIDTH 443 0
DWIDTH 7 0
BBX 5 5 1 0
BITMAP
78
80
70
08
F0
ENDCHAR
STARTCHAR t
ENCODING 116
SWIDTH 443 0
DWIDTH 7 0
BBX 5 6 1 0
BITMAP
40
F0
40
40
40
38
ENDCHAR
STARTCHAR u
ENCODING 117
SWIDTH 443 0
DWIDTH 7 0
BBX 4 5 1 0
BITMAP
90
90
90
90
60
ENDCHAR
STARTCHAR v
ENCODING 118
SWIDTH 443 0
DWIDTH 7 0
BBX 5 5 1 0
BITMAP
88
88
50
70
20
ENDCHAR
STARTCHAR w
ENCODING 119
SWIDTH 443 0
DWIDTH 7 0
BBX 5 5 1 0
BITMAP
88
A8
A8
50
50
ENDCHAR
STARTCHAR x
ENCODING 120
SWIDTH 443 0
DWIDTH 7 0
BBX 5 5 1 0
BITMAP
88
50
20
50
88
ENDCHAR
STARTCHAR y
ENCODING 121
SWIDTH 443 0
DWIDTH 7 0
BBX 5 7 1 -2
BITMAP
88
88
50
50
20
20
C0
ENDCHAR
STARTCHAR z
ENCODING 122
SWIDTH 443 0
DWIDTH 7 0
BBX 4 5 1 0
BITMAP
F0
10
20
40
F0
ENDCHAR
STARTCHAR braceleft
ENCODING 123
SWIDTH 443 0
DWIDTH 7 0
BBX 3 9 2 -1
BITMAP
20
40
40
40
80
40
40
40
20
ENDCHAR
STARTCHAR bar
ENCODING 124
SWIDTH 443 0
DWIDTH 7 0
BBX 1 10 3 -2
BITMAP
80
80
80
80
80
00
80
80
80
80
ENDCHAR
STARTCHAR braceright
ENCODING 125
SWIDTH 443 0
DWIDTH 7 0
BBX 3 9 2 -1
BITMAP
80
40
40
40
20
40
40
40
80
ENDCHAR
STARTCHAR asciitilde
ENCODING 126
SWIDTH 443 0
DWIDTH 7 0
BBX 4 2 1 3
BITMAP
50
A0
ENDCHAR
STARTCHAR C177
ENCODING 127
SWIDTH 443 0
DWIDTH 7 0
BBX 7 6 0 0
BITMAP
10
28
44
82
82
FE
ENDCHAR
STARTCHAR C200
ENCODING 128
SWIDTH 443 0
DWIDTH 7 0
BBX 5 9 1 -2
BITMAP
70
88
80
80
80
88
70
20
60
ENDCHAR
STARTCHAR C201
ENCODING 129
SWIDTH 443 0
DWIDTH 7 0
BBX 4 7 1 0
BITMAP
50
00
90
90
90
90
60
ENDCHAR
STARTCHAR C202
ENCODING 130
SWIDTH 443 0
DWIDTH 7 0
BBX 5 8 1 0
BITMAP
10
20
00
70
88
F0
80
78
ENDCHAR
STARTCHAR C203
ENCODING 131
SWIDTH 443 0
DWIDTH 7 0
BBX 5 8 1 0
BITMAP
20
50
00
70
08
78
88
78
ENDCHAR
STARTCHAR C204
ENCODING 132
SWIDTH 443 0
DWIDTH 7 0
BBX 5 7 1 0
BITMAP
50
00
70
08
78
88
78
ENDCHAR
STARTCHAR C205
ENCODING 133
SWIDTH 443 0
DWIDTH 7 0
BBX 5 8 1 0
BITMAP
20
10
00
70
08
78
88
78
ENDCHAR
STARTCHAR C206
ENCODING 134
SWIDTH 443 0
DWIDTH 7 0
BBX 5 8 1 0
BITMAP
20
50
20
70
08
78
88
78
ENDCHAR
STARTCHAR C207
ENCODING 135
SWIDTH 443 0
DWIDTH 7 0
BBX 5 7 1 -2
BITMAP
70
88
80
88
70
20
60
ENDCHAR
STARTCHAR C210
ENCODING 136
SWIDTH 443 0
DWIDTH 7 0
BBX 5 8 1 0
BITMAP
20
50
00
70
88
F8
80
78
ENDCHAR
STARTCHAR C211
ENCODING 137
SWIDTH 443 0
DWIDTH 7 0
BBX 5 7 1 0
BITMAP
50
00
70
88
F8
80
78
ENDCHAR
STARTCHAR C212
ENCODING 138
SWIDTH 443 0
DWIDTH 7 0
BBX 5 8 1 0
BITMAP
40
20
00
70
88
F8
80
78
ENDCHAR
STARTCHAR C213
ENCODING 139
SWIDTH 443 0
DWIDTH 7 0
BBX 5 7 1 0
BITMAP
50
00
E0
20
20
20
F8
ENDCHAR
STARTCHAR C214
ENCODING 140
SWIDTH 443 0
DWIDTH 7 0
BBX 5 8 1 0
BITMAP
20
50
00
E0
20
20
20
F8
ENDCHAR
STARTCHAR C215
ENCODING 141
SWIDTH 443 0
DWIDTH 7 0
BBX 5 8 1 0
BITMAP
40
20
00
E0
20
20
20
F8
ENDCHAR
STARTCHAR C216
ENCODING 142
SWIDTH 443 0
DWIDTH 7 0
BBX 5 9 1 0
BITMAP
50
00
20
20
50
50
F8
88
88
ENDCHAR
STARTCHAR C217
ENCODING 143
SWIDTH 443 0
DWIDTH 7 0
BBX 5 9 1 0
BITMAP
20
50
20
20
50
50
F8
88
88
ENDCHAR
STARTCHAR C220
ENCODING 144
SWIDTH 443 0
DWIDTH 7 0
BBX 5 9 1 0
BITMAP
10
20
F8
80
80
F0
80
80
F8
ENDCHAR
STARTCHAR C221
ENCODING 145
SWIDTH 443 0
DWIDTH 7 0
BBX 7 5 0 0
BITMAP
6C
12
3E
D0
6E
ENDCHAR
STARTCHAR C222
ENCODING 146
SWIDTH 443 0
DWIDTH 7 0
BBX 6 7 0 0
BITMAP
3C
50
50
9C
F0
90
9C
ENDCHAR
STARTCHAR C223
ENCODING 147
SWIDTH 443 0
DWIDTH 7 0
BBX 5 8 1 0
BITMAP
20
50
00
70
88
88
88
70
ENDCHAR
STARTCHAR C224
ENCODING 148
SWIDTH 443 0
DWIDTH 7 0
BBX 5 7 1 0
BITMAP
50
00
70
88
88
88
70
ENDCHAR
STARTCHAR C225
ENCODING 149
SWIDTH 443 0
DWIDTH 7 0
BBX 5 8 1 0
BITMAP
40
20
00
70
88
88
88
70
ENDCHAR
STARTCHAR C226
ENCODING 150
SWIDTH 443 0
DWIDTH 7 0
BBX 4 8 1 0
BITMAP
20
50
00
90
90
90
90
60
ENDCHAR
STARTCHAR C227
ENCODING 151
SWIDTH 443 0
DWIDTH 7 0
BBX 4 8 1 0
BITMAP
40
20
00
90
90
90
90
60
ENDCHAR
STARTCHAR C230
ENCODING 152
SWIDTH 443 0
DWIDTH 7 0
BBX 5 9 1 -2
BITMAP
50
00
88
88
50
50
20
20
C0
ENDCHAR
STARTCHAR C231
ENCODING 153
SWIDTH 443 0
DWIDTH 7 0
BBX 4 7 1 0
BITMAP
50
00
90
90
90
90
60
ENDCHAR
STARTCHAR C232
ENCODING 154
SWIDTH 443 0
DWIDTH 7 0
BBX 5 9 1 0
BITMAP
50
00
88
88
88
88
88
88
70
ENDCHAR
STARTCHAR C233
ENCODING 155
SWIDTH 443 0
DWIDTH 7 0
BBX 5 9 1 -2
BITMAP
20
20
70
A8
A0
A8
70
20
20
ENDCHAR
STARTCHAR C234
ENCODING 156
SWIDTH 443 0
DWIDTH 7 0
BBX 5 7 1 0
BITMAP
30
48
40
F0
40
A0
58
ENDCHAR
STARTCHAR C235
ENCODING 157
SWIDTH 443 0
DWIDTH 7 0
BBX 5 7 1 0
BITMAP
88
88
50
20
F8
20
20
ENDCHAR
STARTCHAR C236
ENCODING 158
SWIDTH 443 0
DWIDTH 7 0
BBX 6 7 1 0
BITMAP
E0
90
90
E8
9C
88
8C
ENDCHAR
STARTCHAR C237
ENCODING 159
SWIDTH 443 0
DWIDTH 7 0
BBX 6 10 0 -3
BITMAP
0C
10
10
7C
10
10
20
20
20
C0
ENDCHAR
STARTCHAR nobreakspace
ENCODING 160
SWIDTH 443 0
DWIDTH 7 0
BBX 5 8 1 0
BITMAP
10
20
00
70
08
78
88
78
ENDCHAR
STARTCHAR exclamdown
ENCODING 161
SWIDTH 443 0
DWIDTH 7 0
BBX 5 8 1 0
BITMAP
10
20
00
E0
20
20
20
F8
ENDCHAR
STARTCHAR cent
ENCODING 162
SWIDTH 443 0
DWIDTH 7 0
BBX 5 8 1 0
BITMAP
10
20
00
70
88
88
88
70
ENDCHAR
STARTCHAR sterling
ENCODING 163
SWIDTH 443 0
DWIDTH 7 0
BBX 4 8 1 0
BITMAP
10
20
00
90
90
90
90
60
ENDCHAR
STARTCHAR currency
ENCODING 164
SWIDTH 443 0
DWIDTH 7 0
BBX 4 8 1 0
BITMAP
50
A0
00
E0
90
90
90
90
ENDCHAR
STARTCHAR yen
ENCODING 165
SWIDTH 443 0
DWIDTH 7 0
BBX 6 10 0 0
BITMAP
28
50
84
C4
A4
94
94
8C
84
84
ENDCHAR
STARTCHAR brokenbar
ENCODING 166
SWIDTH 443 0
DWIDTH 7 0
BBX 3 5 2 2
BITMAP
C0
60
A0
00
E0
ENDCHAR
STARTCHAR section
ENCODING 167
SWIDTH 443 0
DWIDTH 7 0
BBX 3 5 2 2
BITMAP
40
A0
40
00
E0
ENDCHAR
STARTCHAR diaeresis
ENCODING 168
SWIDTH 443 0
DWIDTH 7 0
BBX 5 7 1 0
BITMAP
20
00
20
40
80
88
70
ENDCHAR
STARTCHAR copyright
ENCODING 169
SWIDTH 443 0
DWIDTH 7 0
BBX 5 3 1 1
BITMAP
f8
80
80
ENDCHAR
STARTCHAR ordfeminine
ENCODING 170
SWIDTH 443 0
DWIDTH 7 0
BBX 5 3 1 1
BITMAP
f8
08
08
ENDCHAR
STARTCHAR guillemotleft
ENCODING 171
SWIDTH 443 0
DWIDTH 7 0
BBX 7 7 0 0
BITMAP
C2
44
48
10
2C
44
8E
ENDCHAR
STARTCHAR notsign
ENCODING 172
SWIDTH 443 0
DWIDTH 7 0
BBX 7 7 0 0
BITMAP
C2
44
48
10
2A
4E
82
ENDCHAR
STARTCHAR hyphen
ENCODING 173
SWIDTH 443 0
DWIDTH 7 0
BBX 3 8 2 -1
BITMAP
40
00
40
40
E0
E0
E0
40
ENDCHAR
STARTCHAR registered
ENCODING 174
SWIDTH 443 0
DWIDTH 7 0
BBX 6 5 0 1
BITMAP
24
48
90
48
24
ENDCHAR
STARTCHAR macron
ENCODING 175
SWIDTH 443 0
DWIDTH 7 0
BBX 6 5 0 1
BITMAP
90
48
24
48
90
ENDCHAR
STARTCHAR degree
ENCODING 176
SWIDTH 443 0
DWIDTH 7 0
BBX 7 12 0 -3
BITMAP
AA
54
AA
54
AA
54
AA
54
AA
54
AA
54
ENDCHAR
STARTCHAR plusminus
ENCODING 177
SWIDTH 443 0
DWIDTH 7 0
BBX 7 12 0 -3
BITMAP
aa
dc
aa
76
aa
dc
aa
76
aa
dc
aa
76
ENDCHAR
STARTCHAR twosuperior
ENCODING 178
SWIDTH 443 0
DWIDTH 7 0
BBX 7 12 0 -3
BITMAP
ba
fe
6c
fe
ba
fe
6c
fe
ba
fe
6c
fe
ENDCHAR
STARTCHAR threesuperior
ENCODING 179
SWIDTH 443 0
DWIDTH 7 0
BBX 1 12 3 -3
BITMAP
80
80
80
80
80
80
80
80
80
80
80
80
ENDCHAR
STARTCHAR acute
ENCODING 180
SWIDTH 443 0
DWIDTH 7 0
BBX 4 12 0 -3
BITMAP
10
10
10
10
10
10
F0
10
10
10
10
10
ENDCHAR
STARTCHAR mu
ENCODING 181
SWIDTH 443 0
DWIDTH 7 0
BBX 4 12 0 -3
BITMAP
10
10
10
10
10
F0
10
F0
10
10
10
10
ENDCHAR
STARTCHAR paragraph
ENCODING 182
SWIDTH 443 0
DWIDTH 7 0
BBX 5 12 0 -3
BITMAP
28
28
28
28
28
28
E8
28
28
28
28
28
ENDCHAR
STARTCHAR periodcentered
ENCODING 183
SWIDTH 443 0
DWIDTH 7 0
BBX 5 6 0 -3
BITMAP
F8
28
28
28
28
28
ENDCHAR
STARTCHAR cedilla
ENCODING 184
SWIDTH 443 0
DWIDTH 7 0
BBX 4 7 0 -3
BITMAP
F0
10
F0
10
10
10
10
ENDCHAR
STARTCHAR onesuperior
ENCODING 185
SWIDTH 443 0
DWIDTH 7 0
BBX 5 12 0 -3
BITMAP
28
28
28
28
28
e8
08
e8
28
28
28
28
ENDCHAR
STARTCHAR masculine
ENCODING 186
SWIDTH 443 0
DWIDTH 7 0
BBX 3 12 2 -3
BITMAP
A0
A0
A0
A0
A0
A0
A0
A0
A0
A0
A0
A0
ENDCHAR
STARTCHAR guillemotright
ENCODING 187
SWIDTH 443 0
DWIDTH 7 0
BBX 5 7 0 -3
BITMAP
F8
08
E8
28
28
28
28
ENDCHAR
STARTCHAR onequarter
ENCODING 188
SWIDTH 443 0
DWIDTH 7 0
BBX 5 8 0 1
BITMAP
28
28
28
28
28
E8
08
F8
ENDCHAR
STARTCHAR onehalf
ENCODING 189
SWIDTH 443 0
DWIDTH 7 0
BBX 5 7 0 2
BITMAP
28
28
28
28
28
28
F8
ENDCHAR
STARTCHAR threequarters
ENCODING 190
SWIDTH 443 0
DWIDTH 7 0
BBX 4 8 0 1
BITMAP
10
10
10
10
10
F0
10
F0
ENDCHAR
STARTCHAR questiondown
ENCODING 191
SWIDTH 443 0
DWIDTH 7 0
BBX 4 6 0 -3
BITMAP
F0
10
10
10
10
10
ENDCHAR
STARTCHAR Agrave
ENCODING 192
SWIDTH 443 0
DWIDTH 7 0
BBX 4 7 3 2
BITMAP
80
80
80
80
80
80
F0
ENDCHAR
STARTCHAR Aacute
ENCODING 193
SWIDTH 443 0
DWIDTH 7 0
BBX 7 7 0 2
BITMAP
10
10
10
10
10
10
FE
ENDCHAR
STARTCHAR Acircumflex
ENCODING 194
SWIDTH 443 0
DWIDTH 7 0
BBX 7 6 0 -3
BITMAP
FE
10
10
10
10
10
ENDCHAR
STARTCHAR Atilde
ENCODING 195
SWIDTH 443 0
DWIDTH 7 0
BBX 4 12 3 -3
BITMAP
80
80
80
80
80
80
F0
80
80
80
80
80
ENDCHAR
STARTCHAR Adiaeresis
ENCODING 196
SWIDTH 443 0
DWIDTH 7 0
BBX 7 1 0 2
BITMAP
FE
ENDCHAR
STARTCHAR Aring
ENCODING 197
SWIDTH 443 0
DWIDTH 7 0
BBX 7 12 0 -3
BITMAP
10
10
10
10
10
10
FE
10
10
10
10
10
ENDCHAR
STARTCHAR AE
ENCODING 198
SWIDTH 443 0
DWIDTH 7 0
BBX 4 12 3 -3
BITMAP
80
80
80
80
80
F0
80
F0
80
80
80
80
ENDCHAR
STARTCHAR Ccedilla
ENCODING 199
SWIDTH 443 0
DWIDTH 7 0
BBX 5 12 2 -3
BITMAP
A0
A0
A0
A0
A0
A0
B8
A0
A0
A0
A0
A0
ENDCHAR
STARTCHAR Egrave
ENCODING 200
SWIDTH 443 0
DWIDTH 7 0
BBX 5 8 2 1
BITMAP
A0
A0
A0
A0
A0
B8
80
F8
ENDCHAR
STARTCHAR Eacute
ENCODING 201
SWIDTH 443 0
DWIDTH 7 0
BBX 5 7 2 -3
BITMAP
F8
80
B8
A0
A0
A0
A0
ENDCHAR
STARTCHAR Ecircumflex
ENCODING 202
SWIDTH 443 0
DWIDTH 7 0
BBX 7 8 0 1
BITMAP
28
28
28
28
28
EE
00
FE
ENDCHAR
STARTCHAR Ediaeresis
ENCODING 203
SWIDTH 443 0
DWIDTH 7 0
BBX 7 7 0 -3
BITMAP
FE
00
EE
28
28
28
28
ENDCHAR
STARTCHAR Igrave
ENCODING 204
SWIDTH 443 0
DWIDTH 7 0
BBX 5 12 2 -3
BITMAP
A0
A0
A0
A0
A0
B8
80
B8
A0
A0
A0
A0
ENDCHAR
STARTCHAR Iacute
ENCODING 205
SWIDTH 443 0
DWIDTH 7 0
BBX 7 3 0 1
BITMAP
FE
00
FE
ENDCHAR
STARTCHAR Icircumflex
ENCODING 206
SWIDTH 443 0
DWIDTH 7 0
BBX 7 12 0 -3
BITMAP
28
28
28
28
28
EE
00
EE
28
28
28
28
ENDCHAR
STARTCHAR Idiaeresis
ENCODING 207
SWIDTH 443 0
DWIDTH 7 0
BBX 7 8 0 1
BITMAP
10
10
10
10
10
FE
00
FE
ENDCHAR
STARTCHAR ETH
ENCODING 208
SWIDTH 443 0
DWIDTH 7 0
BBX 7 7 0 2
BITMAP
28
28
28
28
28
28
FE
ENDCHAR
STARTCHAR Ntilde
ENCODING 209
SWIDTH 443 0
DWIDTH 7 0
BBX 7 7 0 -3
BITMAP
FE
00
FE
10
10
10
10
ENDCHAR
STARTCHAR Ograve
ENCODING 210
SWIDTH 443 0
DWIDTH 7 0
BBX 7 6 0 -3
BITMAP
FE
28
28
28
28
28
ENDCHAR
STARTCHAR Oacute
ENCODING 211
SWIDTH 443 0
DWIDTH 7 0
BBX 5 7 2 2
BITMAP
A0
A0
A0
A0
A0
A0
F8
ENDCHAR
STARTCHAR Ocircumflex
ENCODING 212
SWIDTH 443 0
DWIDTH 7 0
BBX 4 8 3 1
BITMAP
80
80
80
80
80
F0
80
F0
ENDCHAR
STARTCHAR Otilde
ENCODING 213
SWIDTH 443 0
DWIDTH 7 0
BBX 4 7 3 -3
BITMAP
F0
80
F0
80
80
80
80
ENDCHAR
STARTCHAR Odiaeresis
ENCODING 214
SWIDTH 443 0
DWIDTH 7 0
BBX 5 6 2 -3
BITMAP
F8
A0
A0
A0
A0
A0
ENDCHAR
STARTCHAR multiply
ENCODING 215
SWIDTH 443 0
DWIDTH 7 0
BBX 7 12 0 -3
BITMAP
28
28
28
28
28
28
FE
28
28
28
28
28
ENDCHAR
STARTCHAR Ooblique
ENCODING 216
SWIDTH 443 0
DWIDTH 7 0
BBX 7 12 0 -3
BITMAP
10
10
10
10
10
FE
10
FE
10
10
10
10
ENDCHAR
STARTCHAR Ugrave
ENCODING 217
SWIDTH 443 0
DWIDTH 7 0
BBX 4 7 0 2
BITMAP
10
10
10
10
10
10
F0
ENDCHAR
STARTCHAR Uacute
ENCODING 218
SWIDTH 443 0
DWIDTH 7 0
BBX 4 6 3 -3
BITMAP
F0
80
80
80
80
80
ENDCHAR
STARTCHAR Ucircumflex
ENCODING 219
SWIDTH 443 0
DWIDTH 7 0
BBX 7 12 0 -3
BITMAP
FE
FE
FE
FE
FE
FE
FE
FE
FE
FE
FE
FE
ENDCHAR
STARTCHAR Udiaeresis
ENCODING 220
SWIDTH 443 0
DWIDTH 7 0
BBX 7 6 0 -3
BITMAP
FE
FE
FE
FE
FE
FE
ENDCHAR
STARTCHAR Yacute
ENCODING 221
SWIDTH 443 0
DWIDTH 7 0
BBX 4 12 0 -3
BITMAP
F0
F0
F0
F0
F0
F0
F0
F0
F0
F0
F0
F0
ENDCHAR
STARTCHAR THORN
ENCODING 222
SWIDTH 443 0
DWIDTH 7 0
BBX 3 12 4 -3
BITMAP
E0
E0
E0
E0
E0
E0
E0
E0
E0
E0
E0
E0
ENDCHAR
STARTCHAR ssharp
ENCODING 223
SWIDTH 443 0
DWIDTH 7 0
BBX 7 6 0 3
BITMAP
FE
FE
FE
FE
FE
FE
ENDCHAR
STARTCHAR agrave
ENCODING 224
SWIDTH 443 0
DWIDTH 7 0
BBX 7 5 0 0
BITMAP
74
88
88
8A
74
ENDCHAR
STARTCHAR aacute
ENCODING 225
SWIDTH 443 0
DWIDTH 7 0
BBX 5 9 1 -2
BITMAP
70
88
88
B0
88
88
B0
80
80
ENDCHAR
STARTCHAR acircumflex
ENCODING 226
SWIDTH 443 0
DWIDTH 7 0
BBX 5 7 1 0
BITMAP
F8
80
80
80
80
80
80
ENDCHAR
STARTCHAR atilde
ENCODING 227
SWIDTH 443 0
DWIDTH 7 0
BBX 6 7 1 0
BITMAP
fc
48
48
90
90
90
90
ENDCHAR
STARTCHAR adiaeresis
ENCODING 228
SWIDTH 443 0
DWIDTH 7 0
BBX 5 7 1 0
BITMAP
F8
40
20
10
20
40
F8
ENDCHAR
STARTCHAR aring
ENCODING 229
SWIDTH 443 0
DWIDTH 7 0
BBX 6 5 0 0
BITMAP
7c
90
88
88
70
ENDCHAR
STARTCHAR ae
ENCODING 230
SWIDTH 443 0
DWIDTH 7 0
BBX 5 7 1 -2
BITMAP
88
88
88
88
F0
80
80
ENDCHAR
STARTCHAR ccedilla
ENCODING 231
SWIDTH 443 0
DWIDTH 7 0
BBX 7 7 0 0
BITMAP
86
48
20
10
10
10
10
ENDCHAR
STARTCHAR egrave
ENCODING 232
SWIDTH 443 0
DWIDTH 7 0
BBX 7 7 0 0
BITMAP
10
10
7C
92
7C
10
10
ENDCHAR
STARTCHAR eacute
ENCODING 233
SWIDTH 443 0
DWIDTH 7 0
BBX 6 7 0 0
BITMAP
30
48
84
FC
84
48
30
ENDCHAR
STARTCHAR ecircumflex
ENCODING 234
SWIDTH 443 0
DWIDTH 7 0
BBX 7 7 0 0
BITMAP
38
44
82
82
44
28
EE
ENDCHAR
STARTCHAR ediaeresis
ENCODING 235
SWIDTH 443 0
DWIDTH 7 0
BBX 5 7 1 0
BITMAP
30
48
20
50
88
88
70
ENDCHAR
STARTCHAR igrave
ENCODING 236
SWIDTH 443 0
DWIDTH 7 0
BBX 7 6 0 0
BITMAP
02
FC
54
54
54
28
ENDCHAR
STARTCHAR iacute
ENCODING 237
SWIDTH 443 0
DWIDTH 7 0
BBX 5 7 1 -1
BITMAP
08
70
98
A8
C8
70
80
ENDCHAR
STARTCHAR icircumflex
ENCODING 238
SWIDTH 443 0
DWIDTH 7 0
BBX 4 7 1 -1
BITMAP
30
40
80
F0
80
40
30
ENDCHAR
STARTCHAR idiaeresis
ENCODING 239
SWIDTH 443 0
DWIDTH 7 0
BBX 5 6 1 0
BITMAP
f0
88
88
88
88
88
ENDCHAR
STARTCHAR eth
ENCODING 240
SWIDTH 443 0
DWIDTH 7 0
BBX 7 7 0 -1
BITMAP
FE
00
00
FE
00
00
FE
ENDCHAR
STARTCHAR ntilde
ENCODING 241
SWIDTH 443 0
DWIDTH 7 0
BBX 5 7 1 -1
BITMAP
20
20
F8
20
20
00
F8
ENDCHAR
STARTCHAR ograve
ENCODING 242
SWIDTH 443 0
DWIDTH 7 0
BBX 3 7 2 -1
BITMAP
80
40
20
40
80
00
E0
ENDCHAR
STARTCHAR oacute
ENCODING 243
SWIDTH 443 0
DWIDTH 7 0
BBX 3 7 2 -1
BITMAP
20
40
80
40
20
00
E0
ENDCHAR
STARTCHAR ocircumflex
ENCODING 244
SWIDTH 443 0
DWIDTH 7 0
BBX 3 9 3 -3
BITMAP
40
A0
80
80
80
80
80
80
80
ENDCHAR
STARTCHAR otilde
ENCODING 245
SWIDTH 443 0
DWIDTH 7 0
BBX 3 9 3 -3
BITMAP
20
20
20
20
20
20
20
A0
40
ENDCHAR
STARTCHAR odiaeresis
ENCODING 246
SWIDTH 443 0
DWIDTH 7 0
BBX 5 5 1 1
BITMAP
20
00
F8
00
20
ENDCHAR
STARTCHAR division
ENCODING 247
SWIDTH 443 0
DWIDTH 7 0
BBX 5 5 1 0
BITMAP
48
B0
00
48
B0
ENDCHAR
STARTCHAR oslash
ENCODING 248
SWIDTH 443 0
DWIDTH 7 0
BBX 3 3 2 5
BITMAP
40
A0
40
ENDCHAR
STARTCHAR ugrave
ENCODING 249
SWIDTH 443 0
DWIDTH 7 0
BBX 2 2 2 1
BITMAP
C0
C0
ENDCHAR
STARTCHAR uacute
ENCODING 250
SWIDTH 443 0
DWIDTH 7 0
BBX 2 1 2 2
BITMAP
C0
ENDCHAR
STARTCHAR ucircumflex
ENCODING 251
SWIDTH 443 0
DWIDTH 7 0
BBX 6 7 0 -1
BITMAP
0C
08
08
D0
50
20
20
ENDCHAR
STARTCHAR udiaeresis
ENCODING 252
SWIDTH 443 0
DWIDTH 7 0
BBX 4 4 1 2
BITMAP
E0
90
90
90
ENDCHAR
STARTCHAR yacute
ENCODING 253
SWIDTH 443 0
DWIDTH 7 0
BBX 3 4 2 2
BITMAP
C0
20
40
E0
ENDCHAR
STARTCHAR thorn
ENCODING 254
SWIDTH 443 0
DWIDTH 7 0
BBX 5 5 1 1
BITMAP
F8
F8
F8
F8
F8
ENDCHAR
STARTCHAR ydiaeresis
ENCODING 255
SWIDTH 443 0
DWIDTH 7 0
BBX 0 0 0 0
BITMAP
ENDCHAR
ENDFONT
